#!OML:ASF H:\Terrain\Patient Classification 1\Walking\liu\liu.ASF
:FULLY-SPECIFIED
:DEGREES
222
root 8.98433 16.6539 19.0319 7.93716 2.04958 -3.54728
lowerback -4.43106 -2.421 -1.27716
upperback -0.94943 -3.26788 4.94778
thorax 1.86841 -1.65955 5.64354
lowerneck -20.7739 -2.19375 -11.8589
upperneck 22.1115 -2.2328 11.5978
head 10.8198 -0.611338 5.92017
rclavicle -5.11871e-015 2.06736e-014
rhumerus -48.939 -20.6109 -53.0549
rradius 14.548
rwrist 13.0939
rhand -32.3976 -24.5507
rfingers 7.12502
rthumb -5.63258 -54.4558
lclavicle -5.11871e-015 2.06736e-014
lhumerus -18.3014 -25.1029 96.2365
lradius 36.3919
lwrist 10.6742
lhand -19.7172 -25.3204
lfingers 7.12502
lthumb 6.61278 4.5564
rfemur -35.2895 0.757054 28.8723
rtibia 41.9161
rfoot -12.7466 4.53826
rtoes -15.7234
lfemur -2.02592 11.0149 -14.158
ltibia 59.6412
lfoot 2.05792 14.4752
ltoes -2.13563
223
root 8.96817 16.7045 19.2471 8.21607 2.03596 -3.34832
lowerback -4.46976 -2.256 -1.70557
upperback -1.05932 -3.02292 4.88236
thorax 1.76824 -1.53534 5.83722
lowerneck -20.7066 -2.40337 -11.754
upperneck 22.1444 -2.52429 11.4066
head 10.8571 -0.760425 5.78596
rclavicle 1.89342e-014 7.15625e-015
rhumerus -48.1979 -20.7319 -54.0846
rradius 14.6764
rwrist 12.3056
rhand -31.6968 -24.3874
rfingers 7.12502
rthumb -4.95599 -54.3095
lclavicle 1.89342e-014 7.15625e-015
lhumerus -19.3184 -25.4962 96.854
lradius 35.7295
lwrist 10.3535
lhand -19.2712 -24.6751
lfingers 7.12502
lthumb 7.04339 5.18776
rfemur -34.3672 0.798012 28.7072
rtibia 41.2933
rfoot -13.4828 4.55236
rtoes -16.6812
lfemur -4.75598 10.9889 -14.6951
ltibia 62.012
lfoot 0.369505 14.7543
ltoes -1.61237
224
root 8.95572 16.7622 19.4642 8.47502 2.10111 -3.22039
lowerback -4.73406 -2.08895 -2.04283
upperback -0.974188 -2.78837 4.91019
thorax 1.99462 -1.42573 6.0662
lowerneck -20.8664 -2.66682 -11.9666
upperneck 22.0791 -2.80537 11.4155
head 10.9073 -0.901437 5.78335
rclavicle 2.48481e-016 7.95139e-016
rhumerus -46.9019 -19.8777 -56.1306
rradius 15.1946
rwrist 10.0875
rhand -31.472 -25.2054
rfingers 7.12502
rthumb -4.73895 -55.1324
lclavicle 2.48481e-016 7.95139e-016
lhumerus -19.9735 -25.8821 97.4651
lradius 34.9468
lwrist 10.0567
lhand -18.9341 -24.151
lfingers 7.12502
lthumb 7.36874 5.70063
rfemur -33.4332 0.712099 28.6179
rtibia 40.6953
rfoot -14.4685 4.53594
rtoes -18.9441
lfemur -7.36299 10.9477 -15.1157
ltibia 63.8854
lfoot -1.13162 14.7433
ltoes -3.45063
225
root 8.95661 16.8245 19.6795 8.51167 2.42038 -2.64612
lowerback -4.643 -2.05641 -2.70957
upperback -0.915318 -2.7124 4.83011
thorax 2.02213 -1.39391 6.37198
lowerneck -20.9797 -2.78114 -12.3231
upperneck 22.0152 -2.90227 11.6919
head 10.9296 -0.939576 5.93562
rclavicle 2.54444e-014 -1.66979e-014
rhumerus -45.6096 -18.5479 -58.4384
rradius 16.0442
rwrist 7.51852
rhand -31.2553 -25.801
rfingers 7.12502
rthumb -4.52965 -55.7326
lclavicle 2.54444e-014 -1.66979e-014
lhumerus -20.8325 -26.3646 98.2059
lradius 34.178
lwrist 10.2022
lhand -18.3208 -23.5692
lfingers 7.12502
lthumb 7.9607 6.26085
rfemur -32.1828 0.0649845 28.0476
rtibia 40.0425
rfoot -15.1715 4.71428
rtoes -20.1386
lfemur -9.55265 10.7053 -16.0233
ltibia 65.2604
lfoot -2.58551 14.6401
ltoes -5.60065
226
root 8.95653 16.8811 19.8936 8.33431 2.34682 -2.13017
lowerback -4.02747 -1.93717 -3.37378
upperback -1.05801 -2.52272 4.70212
thorax 1.52692 -1.28661 6.653
lowerneck -21.0696 -2.75604 -12.1838
upperneck 22.42 -2.89554 11.5597
head 11.0912 -0.942509 5.88204
rclavicle -2.39039e-014 6.12257e-014
rhumerus -44.6523 -17.6181 -60.0754
rradius 16.306
rwrist 6.15751
rhand -30.1966 -24.8821
rfingers 7.12502
rthumb -3.50728 -54.833
lclavicle -2.39039e-014 6.12257e-014
lhumerus -22.3506 -26.613 99.0273
lradius 33.6032
lwrist 10.4302
lhand -17.4829 -22.7523
lfingers 7.12502
lthumb 8.76934 7.04551
rfemur -30.7263 -0.149764 27.5339
rtibia 39.3596
rfoot -15.403 4.93578
rtoes -19.3087
lfemur -11.3364 10.7031 -16.9198
ltibia 66.2934
lfoot -4.0196 14.4568
ltoes -8.99388
227
root 8.95045 16.9256 20.1329 8.39161 1.58458 -2.34786
lowerback -4.07845 -1.62205 -3.35935
upperback -1.1645 -2.09904 4.73494
thorax 1.38603 -1.06728 6.70657
lowerneck -20.9295 -2.73466 -12.1117
upperneck 22.666 -2.89064 11.4392
head 11.1517 -0.954741 5.83359
rclavicle -1.41137e-014 1.82882e-014
rhumerus -43.6654 -16.8153 -61.5077
rradius 16.097
rwrist 5.42871
rhand -29.817 -21.9188
rfingers 7.12502
rthumb -3.1407 -51.8754
lclavicle -1.41137e-014 1.82882e-014
lhumerus -23.8559 -26.3759 99.5999
lradius 33.09
lwrist 10.1994
lhand -16.5704 -21.9752
lfingers 7.12502
lthumb 9.64986 7.78375
rfemur -29.448 0.750923 27.7496
rtibia 38.6561
rfoot -15.3913 4.97391
rtoes -16.1036
lfemur -13.2125 11.4491 -17.0289
ltibia 67.1149
lfoot -5.54342 13.9721
ltoes -12.6815
